<?xml version="1.0" encoding="UTF-8"?>
<svg width="171px" height="34px" viewBox="0 0 171 34" version="1.1" xmlns="http://www.w3.org/2000/svg" xmlns:xlink="http://www.w3.org/1999/xlink">
    <!-- Generator: Sketch 52.6 (67491) - http://www.bohemiancoding.com/sketch -->
    <title>Sunny oaks</title>
    <desc>Created with Sketch.</desc>
    <g id="Page-1" stroke="none" stroke-width="1" fill="none" fill-rule="evenodd">
        <g id="Artboard" transform="translate(-2.000000, -1.000000)" fill="#231D1F">
            <path d="M2.516,25.629 L2.516,17.489 L3.293,17.489 C3.293,17.489 3.33,24.149 10.101,24.149 C12.728,24.149 14.726,22.447 14.726,20.079 C14.726,18.377 13.024,16.934 10.471,15.602 L6.919,13.789 C4.773,12.679 2.812,10.496 2.812,7.684 C2.812,4.613 5.365,2.171 8.954,2.171 C11.137,2.171 12.358,2.874 13.468,3.688 C13.912,3.318 14.356,2.763 14.541,1.986 L15.281,1.986 L15.281,10.126 L14.504,10.126 C14.245,7.166 13.135,3.651 8.843,3.651 C6.771,3.651 5.254,5.094 5.254,6.944 C5.254,8.868 6.549,9.867 9.768,11.532 L13.283,13.345 C16.132,14.788 17.168,16.934 17.168,18.969 C17.168,23.002 13.912,25.629 10.101,25.629 C7.289,25.629 5.513,24.149 4.329,23.89 C3.885,24.26 3.441,24.815 3.256,25.629 L2.516,25.629 Z M28.4447779,25.629 C25.0407779,25.629 23.8567779,23.224 23.8567779,20.079 L23.8567779,17.748 C23.8567779,14.048 23.4127779,13.419 20.9337779,13.419 L20.9337779,12.679 L26.4837779,12.679 L26.4837779,19.894 C26.4837779,22.299 27.2977779,23.853 29.2957779,23.853 C30.7387779,23.853 33.2917779,22.484 33.2917779,20.19 L33.2917779,17.748 C33.2917779,14.048 32.8107779,13.419 30.3317779,13.419 L30.3317779,12.679 L35.8817779,12.679 L35.8817779,19.931 C35.8817779,23.446 36.4737779,23.89 38.4347779,23.89 L38.4347779,24.593 L33.8837779,25.518 C33.6987779,25.148 33.3657779,23.89 33.2917779,23.261 C32.3667779,24.223 30.5907779,25.629 28.4447779,25.629 Z M41.9785558,25 L41.9785558,24.223 C44.4205558,24.223 44.9015558,23.594 44.9015558,19.894 L44.9015558,18.044 C44.9015558,14.344 44.4205558,13.752 41.9785558,13.752 L41.9785558,12.975 L46.8995558,12.05 C47.0845558,12.42 47.4175558,13.937 47.5285558,14.714 C48.5275558,13.456 50.2295558,12.05 52.6715558,12.05 C56.0015558,12.05 57.4815558,14.418 57.4815558,17.563 L57.4815558,19.894 C57.4815558,23.594 57.9255558,24.223 60.4045558,24.223 L60.4045558,25 L51.9315558,25 L51.9315558,24.223 C54.3365558,24.223 54.8545558,23.594 54.8545558,19.894 L54.8545558,17.748 C54.8545558,15.343 54.0035558,13.789 51.7835558,13.789 C49.7485558,13.789 47.5285558,15.454 47.5285558,17.489 L47.5285558,19.894 C47.5285558,23.705 47.8245558,24.223 50.1185558,24.223 L50.1185558,25 L41.9785558,25 Z M63.5413337,25 L63.5413337,24.223 C65.9833337,24.223 66.4643337,23.594 66.4643337,19.894 L66.4643337,18.044 C66.4643337,14.344 65.9833337,13.752 63.5413337,13.752 L63.5413337,12.975 L68.4623337,12.05 C68.6473337,12.42 68.9803337,13.937 69.0913337,14.714 C70.0903337,13.456 71.7923337,12.05 74.2343337,12.05 C77.5643337,12.05 79.0443337,14.418 79.0443337,17.563 L79.0443337,19.894 C79.0443337,23.594 79.4883337,24.223 81.9673337,24.223 L81.9673337,25 L73.4943337,25 L73.4943337,24.223 C75.8993337,24.223 76.4173337,23.594 76.4173337,19.894 L76.4173337,17.748 C76.4173337,15.343 75.5663337,13.789 73.3463337,13.789 C71.3113337,13.789 69.0913337,15.454 69.0913337,17.489 L69.0913337,19.894 C69.0913337,23.705 69.3873337,24.223 71.6813337,24.223 L71.6813337,25 L63.5413337,25 Z M86.9171116,34.99 C86.3991116,34.99 85.6591116,34.694 85.6591116,33.769 C85.6591116,32.326 87.3241116,32.326 88.4711116,29.44 L90.3211116,24.815 L86.0661116,15.602 C85.2891116,13.937 84.7341116,13.419 83.5871116,13.419 L83.5871116,12.679 L90.1361116,12.679 L90.1361116,13.419 C88.5081116,13.419 88.1381116,13.789 88.9521116,15.602 L91.6531116,21.522 L94.0211116,15.602 C94.6871116,13.9 94.4651116,13.419 92.9481116,13.419 L92.9481116,12.679 L98.1281116,12.679 L98.1281116,13.419 C96.9811116,13.419 96.1671116,13.937 95.5011116,15.602 L88.2861116,33.621 C87.9901116,34.361 87.5091116,34.99 86.9171116,34.99 Z M117.795667,25.629 C113.688667,25.629 110.321667,22.558 110.321667,18.821 C110.321667,15.084 113.688667,12.05 117.795667,12.05 C121.902667,12.05 125.269667,15.084 125.269667,18.821 C125.269667,22.558 121.902667,25.629 117.795667,25.629 Z M117.795667,24.186 C120.866667,24.186 122.272667,21.781 122.272667,18.821 C122.272667,15.861 120.866667,13.456 117.795667,13.456 C114.761667,13.456 113.318667,15.861 113.318667,18.821 C113.318667,21.781 114.761667,24.186 117.795667,24.186 Z M133.179445,25.481 C131.366445,25.481 129.849445,24.334 129.849445,22.373 C129.849445,19.228 133.512445,17.859 137.730445,17.119 C137.730445,14.344 137.360445,13.234 135.251445,13.234 C134.400445,13.234 133.142445,13.826 133.142445,15.01 C133.142445,15.75 132.587445,16.305 131.884445,16.305 C131.144445,16.305 130.589445,15.75 130.589445,15.01 C130.589445,13.234 132.920445,12.05 135.288445,12.05 C138.877445,12.05 140.357445,13.567 140.357445,17.082 L140.357445,22.669 C140.357445,23.594 140.653445,24.112 141.208445,24.112 C141.578445,24.112 141.985445,23.816 142.244445,23.557 L142.762445,24.26 C142.059445,25 141.134445,25.407 140.320445,25.407 C138.877445,25.407 137.989445,24.593 137.804445,23.261 C135.991445,24.889 134.659445,25.481 133.179445,25.481 Z M134.363445,23.816 C135.140445,23.816 136.028445,23.557 137.730445,22.04 L137.730445,18.266 C134.215445,19.08 132.624445,20.301 132.624445,21.929 C132.624445,23.113 133.438445,23.816 134.363445,23.816 Z M145.085223,25 L145.085223,24.223 C147.564223,24.223 148.008223,23.594 148.008223,19.894 L148.008223,8.202 C148.008223,4.502 147.564223,3.873 145.085223,3.873 L145.085223,3.096 L150.635223,2.171 L150.635223,17.896 L153.743223,15.38 C154.964223,14.381 154.446223,13.419 152.633223,13.419 L152.633223,12.679 L160.033223,12.679 L160.033223,13.419 C160.033223,13.419 157.591223,13.567 156.148223,14.751 L153.003223,17.341 L158.960223,23.335 C159.589223,23.964 160.662223,24.223 161.143223,24.223 L161.143223,25 L157.036223,25 L151.079223,18.858 L150.635223,19.228 L150.635223,19.894 C150.635223,23.594 151.116223,24.223 153.558223,24.223 L153.558223,25 L145.085223,25 Z M163.466001,25.629 L163.466001,20.227 L164.243001,20.227 C164.243001,21.892 165.649001,24.371 168.276001,24.371 C169.497001,24.371 170.385001,23.52 170.385001,22.484 C170.385001,21.559 169.571001,20.893 168.313001,20.227 L166.241001,19.117 C164.465001,18.155 163.799001,16.601 163.799001,15.417 C163.799001,13.419 165.649001,12.05 167.536001,12.05 C169.460001,12.05 170.200001,12.901 170.681001,12.901 C170.829001,12.901 170.903001,12.642 170.903001,12.05 L171.680001,12.05 L171.680001,16.342 L170.903001,16.342 C170.903001,14.788 169.793001,13.234 167.906001,13.234 C166.648001,13.234 166.019001,13.9 166.019001,14.825 C166.019001,15.713 166.611001,16.194 168.276001,17.082 L170.052001,18.044 C171.680001,18.969 172.605001,20.264 172.605001,21.596 C172.605001,24.038 170.607001,25.629 168.202001,25.629 C166.537001,25.629 165.242001,24.445 164.724001,24.445 C164.391001,24.445 164.243001,24.741 164.243001,25.629 L163.466001,25.629 Z" id="Sunny-oaks"></path>
        </g>
    </g>
</svg>